<mxfile host="app.diagrams.net" modified="2023-05-17T19:19:21.173Z" agent="Mozilla/5.0 (Windows NT 10.0; Win64; x64) AppleWebKit/537.36 (KHTML, like Gecko) Chrome/113.0.0.0 Safari/537.36" version="21.3.0" etag="z9af4ZHKYJ70X9m8Bcm_" type="github">
  <diagram name="第 1 页" id="EDPw2ay611b9b-uZvfGx">
    <mxGraphModel>
      <root>
        <mxCell id="0" />
        <mxCell id="1" parent="0" />
      </root>
    </mxGraphModel>
  </diagram>
</mxfile>
